<svg t="1704120470963" class="icon" viewBox="0 0 1024 1024" version="1.1" xmlns="http://www.w3.org/2000/svg" p-id="934" width="200" height="200"><path d="M170.666667 298.666667a128 128 0 0 1 128-128h170.666666a42.666667 42.666667 0 1 0 0-85.333334H298.666667a213.333333 213.333333 0 0 0-213.333334 213.333334v426.666666a213.333333 213.333333 0 0 0 213.333334 213.333334h426.666666a213.333333 213.333333 0 0 0 213.333334-213.333334v-170.666666a42.666667 42.666667 0 1 0-85.333334 0v170.666666a128 128 0 0 1-128 128H298.666667a128 128 0 0 1-128-128V298.666667z" p-id="935"></path><path d="M597.333333 128a42.666667 42.666667 0 0 1 42.666667-42.666667h256a42.666667 42.666667 0 0 1 42.666667 42.666667v256a42.666667 42.666667 0 1 1-85.333334 0V230.997333l-311.168 311.168a42.666667 42.666667 0 0 1-60.330666-60.330666L793.002667 170.666667H640a42.666667 42.666667 0 0 1-42.666667-42.666667z" p-id="936"></path></svg>